<?xml version="1.0" encoding="utf-8"?>
<!-- Generator: Adobe Illustrator 16.0.0, SVG Export Plug-In . SVG Version: 6.00 Build 0)  -->
<!DOCTYPE svg PUBLIC "-//W3C//DTD SVG 1.1//EN" "http://www.w3.org/Graphics/SVG/1.1/DTD/svg11.dtd">
<svg version="1.1" id="b49f4f68-d79e-4476-a14b-b3f27440c724"
	 xmlns="http://www.w3.org/2000/svg" xmlns:xlink="http://www.w3.org/1999/xlink" x="0px" y="0px" width="646px" height="836.75px"
	 viewBox="0 0 646 836.75" enable-background="new 0 0 646 836.75" xml:space="preserve">
<path fill="#F9A826" d="M564.01,136.89l-4.05,29.73L534.89,350.1l-41.04,300.48l-10.28,75.23c-1.62,11.88-11.76,20.73-23.75,20.73
	H186.13c-11.97,0-22.1-8.82-23.75-20.67l-10.45-75.29L110.2,350.1l-25.5-183.61l-4.1-29.54c-1.83-13.11,7.32-25.22,20.42-27.04
	c1.1-0.15,2.2-0.23,3.31-0.23h435.93c13.25,0.01,23.98,10.75,23.97,23.99C564.23,134.74,564.15,135.82,564.01,136.89z"/>
<path fill="#2F2E41" d="M133.21,30.07h379.58c13.24,0,23.97,10.73,23.97,23.97V85.7c0,13.24-10.73,23.97-23.97,23.97H133.21
	c-13.24,0-23.97-10.73-23.97-23.97V54.04C109.24,40.8,119.97,30.07,133.21,30.07z"/>
<path opacity="0.1" enable-background="new    " d="M536.76,67.69V85.7c0,13.24-10.73,23.97-23.97,23.97H133.21
	c-13.24,0-23.97-10.73-23.97-23.97V67.73C251.43,81.28,394.58,81.27,536.76,67.69z"/>
<circle fill="#2F2E41" cx="208.75" cy="272.58" r="64.87"/>
<circle fill="#2F2E41" cx="438.73" cy="272.58" r="64.87"/>
<circle fill="#FFFFFF" cx="205.8" cy="272.58" r="17.69"/>
<circle fill="#FFFFFF" cx="232.34" cy="238.67" r="7.37"/>
<circle fill="#FFFFFF" cx="438.73" cy="272.58" r="17.69"/>
<circle fill="#FFFFFF" cx="465.26" cy="238.67" r="7.37"/>
<path opacity="0.1" enable-background="new    " d="M562.64,125.15L562.64,125.15c0-0.02-0.01-0.04-0.02-0.05
	c-0.63-1.65-1.44-3.22-2.42-4.7v0c-0.29-0.44-0.6-0.86-0.91-1.27c-0.1-0.14-0.21-0.28-0.32-0.41c-0.92-1.15-1.94-2.22-3.05-3.19
	c-0.25-0.22-0.5-0.43-0.76-0.63c-0.29-0.23-0.58-0.46-0.88-0.67c-0.37-0.27-0.76-0.53-1.15-0.78c-0.31-0.2-0.62-0.39-0.94-0.58
	c-0.49-0.28-0.99-0.55-1.5-0.8c-0.24-0.12-0.49-0.23-0.74-0.34c-0.49-0.22-0.99-0.42-1.5-0.6c-0.2-0.07-0.4-0.16-0.61-0.22
	c-0.7-0.23-1.42-0.44-2.15-0.61c-0.18-0.04-0.36-0.07-0.54-0.11c-0.6-0.12-1.21-0.22-1.82-0.3c-0.22-0.03-0.44-0.06-0.67-0.08
	c-0.79-0.08-1.58-0.13-2.39-0.13h0H104.33c-13.27,0.04-24,10.84-23.95,24.12c0,1.05,0.08,2.11,0.22,3.15l0.69,4.99l3.41,24.57h0
	l25.5,183.61h0l33.48,241.02l18.71,134.74c1.65,11.85,11.78,20.67,23.74,20.67h12.99c-0.64-1.67-1.1-3.42-1.35-5.19l-12.61-90.76
	h308.69l41.04-300.48H143.43l-25.09-180.68c147.01,11.92,294.77,10.98,441.62-2.81l4.05-29.73
	C564.55,132.92,564.08,128.89,562.64,125.15z"/>
<path fill="#2F2E41" d="M598.3,149.48c-182.99,19.97-367.61,19.97-550.6,0c-13.24,0-23.97-10.73-23.97-23.97l0,0V93.84
	c0-13.24,10.73-23.97,23.97-23.97l0,0c182.84,22.48,367.75,22.48,550.6,0c13.24,0,23.97,10.73,23.97,23.97v31.67
	C622.27,138.75,611.54,149.48,598.3,149.48z"/>
<path fill="#2F2E41" d="M505.12,639.66H136.58c-6.84,0-12.66-4.97-13.73-11.72L83.04,377.11c-1.2-7.58,3.97-14.7,11.55-15.9
	c0.72-0.12,1.45-0.17,2.18-0.17h450.82c7.68,0,13.9,6.22,13.9,13.9c0,0.78-0.07,1.55-0.2,2.32l-42.47,250.83
	C517.69,634.77,511.9,639.66,505.12,639.66z"/>
<path fill="#F9A826" d="M463.18,460.86c5.34,0.98,8.87,6.09,7.9,11.43c-0.34,1.86-1.21,3.59-2.51,4.97
	c-23.38,24.92-80.08,76.89-146.31,76.89c-66.23,0-122.92-51.97-146.31-76.89c-3.72-3.95-3.53-10.17,0.42-13.88
	c1.38-1.3,3.1-2.17,4.97-2.51C274.51,443.73,370.02,443.73,463.18,460.86L463.18,460.86z"/>
<path fill="#FFFFFF" d="M395.97,476.41c5.36,0.85,9.01,5.89,8.15,11.25c-0.33,2.07-1.32,3.99-2.81,5.46
	c-15.83,15.44-45.3,38.72-79.05,38.72s-63.21-23.28-79.05-38.72c-3.87-3.8-3.92-10.02-0.12-13.89c1.47-1.5,3.38-2.48,5.46-2.82
	C297.36,468.3,347.17,468.3,395.97,476.41L395.97,476.41z"/>
<path id="path2" fill="#009CDE" d="M439.63,725.36h-23.74c-1.62,0-3.01,1.18-3.26,2.78l-9.6,60.88c-0.19,1.2,0.74,2.29,1.96,2.29
	h12.18c1.13,0,2.1-0.83,2.28-1.95l2.73-17.26c0.25-1.6,1.63-2.79,3.26-2.79h7.51c15.64,0,24.66-7.56,27.02-22.57
	c1.06-6.56,0.05-11.72-3.03-15.33C453.56,727.45,447.57,725.36,439.63,725.36z M442.37,747.59c-1.3,8.52-7.8,8.52-14.1,8.52h-3.58
	l2.51-15.91c0.16-0.96,0.98-1.67,1.95-1.67h1.64c4.29,0,8.34,0,10.42,2.44C442.46,742.43,442.84,744.59,442.37,747.59z"/>
<path id="path4" fill="#003087" d="M270.3,725.36h-23.74c-1.63,0-3.01,1.18-3.26,2.78l-9.6,60.88c-0.19,1.2,0.74,2.29,1.96,2.29
	h11.34c1.62,0,3-1.18,3.26-2.79l2.59-16.42c0.25-1.6,1.64-2.79,3.26-2.79h7.51c15.64,0,24.66-7.56,27.02-22.57
	c1.06-6.56,0.04-11.72-3.03-15.33C284.22,727.45,278.24,725.36,270.3,725.36z M273.04,747.59c-1.3,8.52-7.81,8.52-14.1,8.52h-3.58
	l2.51-15.91c0.15-0.96,0.98-1.67,1.96-1.67h1.64c4.29,0,8.34,0,10.42,2.44C273.13,742.43,273.51,744.59,273.04,747.59z"/>
<path id="path6" fill="#003087" d="M341.25,747.32h-11.37c-0.98,0-1.8,0.71-1.95,1.67l-0.5,3.18l-0.8-1.15
	c-2.46-3.58-7.95-4.76-13.42-4.76c-12.56,0-23.29,9.52-25.37,22.86c-1.09,6.66,0.46,13.02,4.23,17.47
	c3.46,4.08,8.42,5.78,14.32,5.78c10.12,0,15.74-6.5,15.74-6.5l-0.5,3.16c-0.19,1.2,0.74,2.29,1.95,2.29h10.24
	c1.62,0,3.01-1.18,3.26-2.78l6.14-38.92C343.4,748.4,342.47,747.32,341.25,747.32z M325.41,769.44c-1.1,6.5-6.26,10.86-12.83,10.86
	c-3.3,0-5.94-1.06-7.63-3.06c-1.68-2-2.31-4.83-1.78-7.99c1.02-6.44,6.26-10.94,12.74-10.94c3.23,0,5.85,1.07,7.58,3.1
	C325.23,763.45,325.91,766.3,325.41,769.44z"/>
<path id="path8" fill="#009CDE" d="M510.59,747.32h-11.37c-0.97,0-1.8,0.71-1.95,1.67l-0.5,3.18l-0.8-1.15
	c-2.46-3.58-7.95-4.76-13.42-4.76c-12.57,0-23.3,9.52-25.38,22.86c-1.08,6.66,0.46,13.02,4.23,17.47c3.47,4.08,8.42,5.78,14.32,5.78
	c10.12,0,15.74-6.5,15.74-6.5l-0.51,3.16c-0.19,1.2,0.74,2.29,1.95,2.29h10.24c1.62,0,3-1.18,3.26-2.78l6.14-38.92
	C512.73,748.4,511.8,747.32,510.59,747.32z M494.74,769.44c-1.1,6.5-6.25,10.86-12.83,10.86c-3.3,0-5.94-1.06-7.64-3.06
	c-1.68-2-2.32-4.83-1.78-7.99c1.03-6.44,6.26-10.94,12.74-10.94c3.23,0,5.85,1.07,7.58,3.1
	C494.56,763.45,495.24,766.3,494.74,769.44z"/>
<path id="path10" fill="#003087" d="M401.8,747.32h-11.43c-1.09,0-2.12,0.54-2.73,1.44l-15.76,23.21l-6.69-22.3
	c-0.42-1.4-1.7-2.35-3.16-2.35h-11.23c-1.36,0-2.31,1.33-1.87,2.62l12.58,36.93l-11.83,16.7c-0.93,1.31,0.01,3.12,1.62,3.12h11.42
	c1.08,0,2.09-0.53,2.71-1.42l38-54.84C404.34,749.11,403.4,747.32,401.8,747.32z"/>
<path id="path12" fill="#009CDE" d="M523.98,727.02l-9.74,61.99c-0.19,1.2,0.74,2.28,1.95,2.28h9.8c1.62,0,3-1.18,3.26-2.78
	l9.61-60.88c0.19-1.2-0.74-2.29-1.95-2.29h-10.97C524.97,725.36,524.14,726.07,523.98,727.02z"/>
<path id="path18" fill="#009CDE" d="M187.12,728.54c1.28-8.15-0.01-13.7-4.42-18.72c-4.85-5.53-13.62-7.9-24.83-7.9h-32.56
	c-2.29,0-4.24,1.67-4.6,3.93l-13.56,85.97c-0.26,1.7,1.05,3.23,2.76,3.23h20.1l-1.39,8.8c-0.23,1.49,0.91,2.83,2.42,2.83h16.95
	c2,0,3.71-1.46,4.02-3.44l0.17-0.87l3.19-20.24l0.21-1.12c0.32-1.99,2.02-3.45,4.03-3.45h2.54c16.41,0,29.26-6.67,33.02-25.95
	c1.57-8.06,0.76-14.78-3.39-19.51C190.5,730.69,188.94,729.51,187.12,728.54L187.12,728.54"/>
<path id="path20" fill="#012169" d="M187.12,728.54c1.28-8.15-0.01-13.7-4.42-18.72c-4.85-5.53-13.62-7.9-24.83-7.9h-32.56
	c-2.29,0-4.24,1.67-4.6,3.93l-13.56,85.97c-0.26,1.7,1.05,3.23,2.76,3.23h20.1l5.05-32.02l-0.16,1c0.36-2.26,2.29-3.93,4.58-3.93
	h9.55c18.76,0,33.45-7.62,37.75-29.66C186.92,729.8,187.03,729.17,187.12,728.54"/>
<path id="path22" fill="#003087" d="M140.49,728.65c0.21-1.36,1.09-2.48,2.26-3.04c0.54-0.26,1.13-0.4,1.76-0.4h25.52
	c3.03,0,5.84,0.2,8.42,0.62c0.74,0.12,1.45,0.25,2.15,0.41c0.7,0.15,1.37,0.33,2.03,0.52c0.33,0.09,0.65,0.2,0.96,0.3
	c1.27,0.42,2.45,0.92,3.53,1.49c1.28-8.15-0.01-13.7-4.42-18.72c-4.86-5.53-13.63-7.9-24.84-7.9h-32.56c-2.29,0-4.24,1.67-4.6,3.93
	l-13.56,85.97c-0.26,1.7,1.05,3.23,2.76,3.23h20.1l5.05-32.02L140.49,728.65z"/>
</svg>
