<svg version="1.1" id="Capa_1" xmlns="http://www.w3.org/2000/svg" xmlns:xlink="http://www.w3.org/1999/xlink" x="0px" y="0px"
	 width="100px" height="66.3px" viewBox="0 0 100 66.3" enable-background="new 0 0 100 66.3" xml:space="preserve">
<g id="logo">
	<path fill="#FF9100" d="M60.2,25.8c0,0,8.8-0.1,11.7,0.2c0.7,0.1,2.5,0.5,2.8,0.9c0.3,0.4-1.3,2.5-0.8,3.2c0.4,0.5,2.3,0.3,2.7-0.2
		c0.8-1.2,0-4.8,3.4-4.6c3.4,0.2,3.9,3.5,5.3,4.5c0.6,0.4,2.5,0.8,2.8,0.2c0.9-1.5-1.7-5.1-6.1-6.7c-1.8-0.7-2.6-0.5-3.3-0.1
		c-0.3,0.2-1.3,0.3-1.6,0.4c-2.6,0.3-5.6,0.1-13-0.3c-3.3-0.2-5.9-2.2-6.3-3.1c-0.2-0.6,0.8-1,2.3-1.9c1.6-1,6.7-2.9,6.7-2.9
		s3.2-1.4,0.5-2.2c-3.1-0.9-25.4-7.4-31.8,2.5c0,0,9.8-5.5,25.1-1.3c0,0-31.2,7.1-31.8,4.8c-0.1-0.4,11.2-22,46.8-4.3
		c4.6,2.3,9.2,8.6,16.4,13.2c0.9,0.6,4.7,2,2.9-2.8c-1.8-5.1-2.5-7.7-13.1-12.3c-3.1-1.3,4,7.1,5.6,7.9c1.2,0.6-3.1-5.1-2.3-4.8
		c3.9,1.6,5.2,3.4,5.1,6.1c-0.1,3.5-17.9-10-18.4-15c-0.2-2.2,18.5,2,18.2,5.5c-0.1,0.6-2,0.1-2.2,0.6C87.5,14.2,89.1,16,90,16
		c1.1,0,2.6-2.1,4.4,0.2c2.1,2.6,0.8,2.3,1,3.9c0,0.3,1.3,1.7,2.1,1.7c0.7,0,2.1-0.5,1-2.6c-1.1-2.1-5.6-6.9-10-10.1
		c-4.3-3.2-10.2-5.9-14-6.6c-2.5-0.5-8.2-0.3-9,2.1c-0.3,0.9,1.4,2.6,1.4,2.6S50.7,2.1,41.7,3.9c-17.9,3.6-19.7,10.5-21,9.8
		c-1.2-0.7-2-12.4-2-12.4S6.9,0.6,4.9,31.8c-0.1,0.9-3.7-1.4-3.8-0.4c0,2,4.7,3,4.8,6.1c0.1,2.8-2.6,2.5-2.5,3.5
		c0.3,2.5,4.9,4,5.2,0.2c0.3-4.6-3.9-26.7,7-34.7c2.7,13.4,1.8,16.8,1.8,16.8S9.3,38.3,14.7,49C20,59.7,34.3,65.1,34.3,65.1
		S11.7,52.4,19.6,36.9c0,0,1.3,6.7,6,2.3c4.7-4.4,5-4.8,4.6-3.4c-0.7,2.8-4.9,10.5-4.9,10.5s-4.2,0.8-3.4,4.5c0.8,3.7,3.1,5.1,5.5,5
		c0.5,0,0.1-1.2-0.2-1.5c-0.9-0.9-4.2-2.1-3.6-3.5c0.6-1.4,2.1-1.9,4.9-1.1c0.8,0.2,1.1-0.4,1.1-0.7c-0.2-0.7-1.6-1.6-1.7-2.4
		c-0.3-3.3,4.6-8.9,5.9-12c0.5-1.2,0.2-6.8-4.6-3.7c-1.7,1-2.7,4.5-6.8,3.8c-2.6-0.5,0.4-7.9,2.2-8.4c2.5-0.6,24.6-6,25.4-4.8
		C52.3,24.9,58.8,26,60.2,25.8z"/>
	<path fill="#FF9100" d="M84,30.1l-5.7,0.1c0,0,0.1-3.3,2.4-3.2C83.2,27.1,84,30.1,84,30.1z"/>
	<path fill="#FF9100" d="M90.9,16.8c0,0,2.1-1.6,3.2,0c1.2,1.7-0.3,3.6-0.3,3.6L90.9,16.8z"/>
	<path fill="#FF9100" d="M27.2,50.2L26.6,53c0,0-2.6-0.8-2.1-2.1C25,49.5,27.2,50.2,27.2,50.2z"/>
	<path fill="#FF9100" d="M2.8,39.8l-0.6-4.8c0,0,2.8,0.3,2.9,2.3C5.2,39.5,2.8,39.8,2.8,39.8z"/>
</g>
</svg>
